<mxfile host="65bd71144e" modified="2020-12-19T01:05:54.910Z" agent="5.0 (X11; Linux x86_64) AppleWebKit/537.36 (KHTML, like Gecko) Code/1.52.1 Chrome/83.0.4103.122 Electron/9.3.5 Safari/537.36" etag="8hYmtfQ9xCYXIh6bLu0t" version="13.10.0" type="embed" pages="2">
    <diagram id="AlSfbbJ31shBEqbPLoWx" name="Position">
        <mxGraphModel dx="1133" dy="450" grid="1" gridSize="10" guides="1" tooltips="1" connect="1" arrows="1" fold="1" page="1" pageScale="1" pageWidth="850" pageHeight="1100" math="0" shadow="0">
            <root>
                <mxCell id="0"/>
                <mxCell id="1" parent="0"/>
                <mxCell id="2" value="Position" style="html=1;dashed=0;whitespace=wrap;" parent="1" vertex="1">
                    <mxGeometry x="160" y="80" width="100" height="50" as="geometry"/>
                </mxCell>
                <mxCell id="3" value="Order" style="html=1;dashed=0;whitespace=wrap;" parent="1" vertex="1">
                    <mxGeometry x="160" y="200" width="100" height="50" as="geometry"/>
                </mxCell>
            </root>
        </mxGraphModel>
    </diagram>
    <diagram id="FQg-209FIwxwQvKPKOsK" name="Provider">
        &#xa;
        <mxGraphModel dx="1133" dy="551" grid="1" gridSize="10" guides="1" tooltips="1" connect="1" arrows="1" fold="1" page="1" pageScale="1" pageWidth="850" pageHeight="1100" math="0" shadow="0">
            &#xa;
            <root>
                &#xa;
                <mxCell id="-ykCVsKQU3B62XkSd_iy-0"/>
                &#xa;
                <mxCell id="-ykCVsKQU3B62XkSd_iy-1" parent="-ykCVsKQU3B62XkSd_iy-0"/>
                &#xa;
                <mxCell id="z9tE2tT_A2jMZ_EI5gU5-0" value="" style="html=1;dashed=0;whitespace=wrap;" parent="-ykCVsKQU3B62XkSd_iy-1" vertex="1">
                    &#xa;
                    <mxGeometry x="40" y="40" width="170" height="110" as="geometry"/>
                    &#xa;
                </mxCell>
                &#xa;
                <mxCell id="-ykCVsKQU3B62XkSd_iy-2" value="Buffer" style="html=1;dashed=0;whitespace=wrap;" parent="-ykCVsKQU3B62XkSd_iy-1" vertex="1">
                    &#xa;
                    <mxGeometry x="140" y="70" width="100" height="50" as="geometry"/>
                    &#xa;
                </mxCell>
                &#xa;
                <mxCell id="dQsS7hlKxQLeATpqD4qR-1" value="" style="html=1;dashed=0;whitespace=wrap;" vertex="1" parent="-ykCVsKQU3B62XkSd_iy-1">
                    &#xa;
                    <mxGeometry x="40" y="200" width="170" height="110" as="geometry"/>
                    &#xa;
                </mxCell>
                &#xa;
                <mxCell id="-ykCVsKQU3B62XkSd_iy-3" value="Repo" style="html=1;dashed=0;whitespace=wrap;" parent="-ykCVsKQU3B62XkSd_iy-1" vertex="1">
                    &#xa;
                    <mxGeometry x="140" y="230" width="100" height="50" as="geometry"/>
                    &#xa;
                </mxCell>
                &#xa;
                <mxCell id="dQsS7hlKxQLeATpqD4qR-3" value="" style="html=1;dashed=0;whitespace=wrap;" vertex="1" parent="-ykCVsKQU3B62XkSd_iy-1">
                    &#xa;
                    <mxGeometry x="40" y="360" width="170" height="110" as="geometry"/>
                    &#xa;
                </mxCell>
                &#xa;
                <mxCell id="-ykCVsKQU3B62XkSd_iy-4" value="Exchange" style="html=1;dashed=0;whitespace=wrap;" parent="-ykCVsKQU3B62XkSd_iy-1" vertex="1">
                    &#xa;
                    <mxGeometry x="140" y="390" width="100" height="50" as="geometry"/>
                    &#xa;
                </mxCell>
                &#xa;
                <mxCell id="dQsS7hlKxQLeATpqD4qR-4" value="" style="edgeStyle=segmentEdgeStyle;endArrow=classic;html=1;exitX=0.5;exitY=1;exitDx=0;exitDy=0;entryX=0.25;entryY=0;entryDx=0;entryDy=0;" edge="1" parent="-ykCVsKQU3B62XkSd_iy-1" source="z9tE2tT_A2jMZ_EI5gU5-0" target="-ykCVsKQU3B62XkSd_iy-3">
                    &#xa;
                    <mxGeometry width="50" height="50" relative="1" as="geometry">
                        &#xa;
                        <mxPoint x="400" y="260" as="sourcePoint"/>
                        &#xa;
                        <mxPoint x="450" y="210" as="targetPoint"/>
                        &#xa;
                        <Array as="points">
                            &#xa;
                            <mxPoint x="125" y="180"/>
                            &#xa;
                            <mxPoint x="165" y="180"/>
                            &#xa;
                        </Array>
                        &#xa;
                    </mxGeometry>
                    &#xa;
                </mxCell>
                &#xa;
            </root>
            &#xa;
        </mxGraphModel>
        &#xa;
    </diagram>
</mxfile>